<svg xmlns="http://www.w3.org/2000/svg" viewBox="0 0 512 512">
  <!-- Background rounded square -->
  <rect x="32" y="32" width="448" height="448" rx="96" ry="96" fill="#000000"/>

  <!-- Toolbox body -->
  <rect x="96" y="200" width="320" height="200" rx="24" ry="24" fill="#ffffff"/>

  <!-- Toolbox lid -->
  <path d="M96 224 L96 180 Q96 156 120 156 L392 156 Q416 156 416 180 L416 224"
        fill="none" stroke="#ffffff" stroke-width="32" stroke-linecap="round"/>

  <!-- Handle -->
  <rect x="200" y="120" width="112" height="36" rx="18" ry="18" fill="#ffffff"/>

  <!-- Tool icons inside -->
  <!-- Wrench -->
  <path d="M160 280 L200 320 L180 340 L140 300 Z" fill="#000000"/>
  <circle cx="148" cy="288" r="20" fill="none" stroke="#000000" stroke-width="8"/>

  <!-- Gear -->
  <circle cx="320" cy="300" r="32" fill="none" stroke="#000000" stroke-width="12"/>
  <circle cx="320" cy="300" r="12" fill="#000000"/>

  <!-- Code brackets -->
  <path d="M240 270 L220 300 L240 330" fill="none" stroke="#000000" stroke-width="10" stroke-linecap="round" stroke-linejoin="round"/>
  <path d="M272 270 L292 300 L272 330" fill="none" stroke="#000000" stroke-width="10" stroke-linecap="round" stroke-linejoin="round"/>
</svg>
